#!OML:ASF H:\GeneralSubjects\Female5\Project 1\Capture day 1\Session 1\Female5.ASF
:FULLY-SPECIFIED
:DEGREES
398
root 13.5637 16.3575 2.26272 -165.472 6.51587 -173.461
lowerback 9.10244 1.27509 -1.20081
upperback -10.0415 2.35308 0.802141
thorax -16.5103 1.57688 0.95446
lowerneck -19.9906 -3.64874 1.69997
upperneck 33.2112 -4.02848 -0.402614
head 14.8132 -0.822453 -1.00537
rclavicle -4.77083e-015 1.11319e-014
rhumerus -56.4318 14.2441 -83.3142
rradius 32.7631
rwrist -10.1875
rhand -24.1367 -15.5588
rfingers 7.12502
rthumb 2.34531 -45.5257
lclavicle -4.77083e-015 1.11319e-014
lhumerus -44.9832 1.76277 69.4338
lradius 33.5223
lwrist -0.758886
lhand -29.823 29.8464
lfingers 7.12502
lthumb -3.14649 59.803
rfemur -14.6214 6.40603 16.6228
rtibia 6.01193
rfoot -27.7437 -26.126
rtoes 20.9704
lfemur -12.6444 -19.8703 -15.4459
ltibia 11.3309
lfoot -18.3875 -20.2083
ltoes -13.9221
399
root 13.6945 16.3544 2.24941 -165.627 6.51824 -173.451
lowerback 9.22006 1.29607 -0.982302
upperback -10.0329 2.41031 0.774823
thorax -16.5672 1.5725 0.784738
lowerneck -19.8397 -3.76347 1.46785
upperneck 33.164 -4.16371 -0.236911
head 14.7678 -0.885292 -0.917933
rclavicle -8.74653e-015 -7.95139e-016
rhumerus -56.5934 13.8566 -82.8839
rradius 32.4735
rwrist -9.81287
rhand -24.132 -15.5235
rfingers 7.12502
rthumb 2.34983 -45.4903
lclavicle -8.74653e-015 -7.95139e-016
lhumerus -44.7333 1.52049 69.3735
lradius 33.417
lwrist -0.651563
lhand -30.1656 29.9305
lfingers 7.12502
lthumb -3.47734 59.8819
rfemur -13.3301 10.6973 14.1653
rtibia 3.09261
rfoot -31.9454 -27.9582
rtoes 27.5128
lfemur -12.1392 -20.4837 -15.0502
ltibia 11.0797
lfoot -19.2671 -20.345
ltoes -13.8639
400
root 13.8325 16.3457 2.23091 -165.837 6.55086 -173.535
lowerback 9.28492 1.33944 -0.937094
upperback -9.98588 2.46755 0.774085
thorax -16.5507 1.58902 0.745132
lowerneck -19.6658 -3.86952 1.22234
upperneck 33.0131 -4.27653 -0.125291
head 14.6693 -0.957692 -0.846815
rclavicle -1.51573e-014 4.77083e-015
rhumerus -56.7748 13.6493 -82.4609
rradius 32.2718
rwrist -9.63018
rhand -23.9617 -15.3983
rfingers 7.12502
rthumb 2.51434 -45.3633
lclavicle -1.51573e-014 4.77083e-015
lhumerus -44.6467 1.63403 69.1971
lradius 33.4193
lwrist -0.828619
lhand -29.8691 30.1529
lfingers 7.12502
lthumb -3.19101 60.1088
rfemur -12.0915 15.2251 11.7347
rtibia 0.536286
rfoot -36.333 -29.7638
rtoes 31.7789
lfemur -11.5962 -20.5915 -14.7456
ltibia 10.8408
lfoot -20.326 -19.6684
ltoes -13.2898
401
root 13.9762 16.332 2.20778 -166.083 6.60663 -173.756
lowerback 9.29064 1.40465 -1.04546
upperback -9.92751 2.52615 0.760822
thorax -16.488 1.62326 0.779269
lowerneck -19.4864 -3.9796 1.11797
upperneck 32.9163 -4.34205 -0.287589
head 14.5811 -1.02813 -0.9033
rclavicle 7.95139e-015 -1.19271e-014
rhumerus -56.9138 13.5962 -82.132
rradius 32.0828
rwrist -9.92351
rhand -21.7705 -13.4645
rfingers 7.12502
rthumb 4.63037 -43.3939
lclavicle 7.95139e-015 -1.19271e-014
lhumerus -44.6448 1.75111 69.0816
lradius 33.3644
lwrist -0.900786
lhand -29.9484 30.3829
lfingers 7.12502
lthumb -3.26767 60.3376
rfemur -10.8978 20.1202 9.2288
rtibia -1.71099
rfoot -42.8414 -29.9184
rtoes 36.1542
lfemur -11.0931 -20.8467 -14.5431
ltibia 10.7326
lfoot -21.4703 -18.9542
ltoes -13.3398
402
root 14.1355 16.3112 2.19804 -166.073 6.56846 -173.901
lowerback 9.18772 1.42551 -1.13816
upperback -9.96609 2.55432 0.784486
thorax -16.4757 1.65425 0.852745
lowerneck -19.5145 -4.09609 1.12895
upperneck 33.0268 -4.41003 -0.566312
head 14.626 -1.08933 -1.03213
rclavicle 8.39865e-015 -2.78299e-014
rhumerus -56.9505 13.5695 -81.8877
rradius 31.7861
rwrist -10.0064
rhand -24.7155 -16.8287
rfingers 7.12502
rthumb 1.78635 -46.8009
lclavicle 8.39865e-015 -2.78299e-014
lhumerus -44.8494 2.41178 68.6753
lradius 33.3932
lwrist -1.5542
lhand -30.2918 30.4013
lfingers 7.12502
lthumb -3.59922 60.3507
rfemur -10.0819 25.6679 6.89189
rtibia -3.51997
rfoot -51.3901 -27.5927
rtoes 39.864
lfemur -11.1754 -20.5355 -14.0687
ltibia 11.0671
lfoot -20.7189 -19.5545
ltoes -13.0036
403
root 14.2948 16.2956 2.17977 -166.315 6.53412 -173.807
lowerback 9.30102 1.44362 -0.81946
upperback -9.912 2.63191 0.846759
thorax -16.4728 1.65283 0.725122
lowerneck -19.5222 -4.20765 1.00868
upperneck 33.1511 -4.47661 -0.676266
head 14.6833 -1.13968 -1.06871
rclavicle 5.31749e-015 -8.74653e-015
rhumerus -56.9706 13.6251 -81.6636
rradius 31.5237
rwrist -9.80251
rhand -23.1756 -13.2776
rfingers 7.12502
rthumb 3.27353 -43.2322
lclavicle 5.31749e-015 -8.74653e-015
lhumerus -44.8304 2.31318 68.4713
lradius 32.9835
lwrist -1.61283
lhand -29.9172 29.8446
lfingers 7.12502
lthumb -3.23753 59.7997
rfemur -9.02724 31.892 5.1001
rtibia -4.8162
rfoot -59.4708 -24.4528
rtoes 41.4952
lfemur -10.9998 -19.9875 -13.4155
ltibia 11.5069
lfoot -19.1126 -20.9316
ltoes -12.3989
404
root 14.4781 16.2701 2.16679 -166.439 6.46759 -173.801
lowerback 9.31896 1.41825 -0.701643
upperback -9.90177 2.6181 0.862004
thorax -16.4662 1.63323 0.679442
lowerneck -19.5627 -4.27833 0.934092
upperneck 33.3889 -4.5202 -0.678804
head 14.8033 -1.14803 -1.06531
rclavicle -8.00108e-015 -6.36111e-015
rhumerus -56.9377 13.611 -81.565
rradius 31.3527
rwrist -9.71182
rhand -20.0093 -12.1988
rfingers 7.12502
rthumb 6.33085 -42.0842
lclavicle -8.00108e-015 -6.36111e-015
lhumerus -44.6458 2.42529 67.8363
lradius 32.3887
lwrist -2.22533
lhand -29.1838 28.562
lfingers 7.12502
lthumb -2.52921 58.5268
rfemur -8.30039 38.1716 3.41402
rtibia -5.41771
rfoot -66.2097 -21.4324
rtoes 42.0359
lfemur -11.1691 -19.0086 -12.5779
ltibia 12.0803
lfoot -16.647 -21.7461
ltoes -13.3458
405
root 14.664 16.2394 2.14567 -166.742 6.37728 -174.049
lowerback 9.37542 1.38802 -0.645151
upperback -9.84939 2.56024 0.767232
thorax -16.4274 1.5866 0.554779
lowerneck -19.5816 -4.31611 0.9191
upperneck 33.7087 -4.48752 -0.761581
head 14.9534 -1.11909 -1.09034
rclavicle 2.0773e-014 7.15625e-015
rhumerus -56.8633 13.4431 -81.4344
rradius 31.1895
rwrist -9.54863
rhand -21.8938 -13.3469
rfingers 7.12502
rthumb 4.51135 -43.2789
lclavicle 2.0773e-014 7.15625e-015
lhumerus -44.7965 2.59836 67.3383
lradius 32.1633
lwrist -2.68232
lhand -29.2637 28.3352
lfingers 7.12502
lthumb -2.60636 58.299
rfemur -7.26531 43.3068 1.95473
rtibia -5.72606
rfoot -70.8985 -18.8887
rtoes 42.6594
lfemur -11.1267 -18.0927 -12.159
ltibia 12.6729
lfoot -14.2519 -22.187
ltoes -14.0679
406
root 14.8568 16.197 2.12326 -167.029 6.23034 -174.374
lowerback 9.31504 1.37541 -0.633721
upperback -9.81422 2.53836 0.74552
thorax -16.3413 1.57234 0.532248
lowerneck -19.4423 -4.4118 0.660785
upperneck 33.9164 -4.42422 -0.913895
head 15.0225 -1.12573 -1.0929
rclavicle -3.46879e-014 -1.90833e-014
rhumerus -56.9644 13.4634 -81.1754
rradius 31.2186
rwrist -9.52994
rhand -19.0832 -12.3552
rfingers 7.12502
rthumb 7.2248 -42.2119
lclavicle -3.46879e-014 -1.90833e-014
lhumerus -45.1042 2.73806 67.2625
lradius 32.1804
lwrist -2.66034
lhand -29.4144 29.5032
lfingers 7.12502
lthumb -2.75194 59.4652
rfemur -6.22021 46.5502 0.87101
rtibia -5.78593
rfoot -73.072 -17.9596
rtoes 43.1031
lfemur -11.1343 -17.0389 -11.8213
ltibia 13.3757
lfoot -12.2149 -22.0308
ltoes -13.9975
407
root 15.0615 16.149 2.11095 -167.206 6.05786 -174.486
lowerback 9.3259 1.37442 -0.467995
upperback -9.79723 2.57138 0.788796
thorax -16.3226 1.57169 0.480733
lowerneck -19.3569 -4.50541 0.394852
upperneck 34.0055 -4.3834 -1.06219
head 15.049 -1.1551 -1.09881
rclavicle 4.62174e-015 4.37326e-015
rhumerus -57.0352 13.4738 -80.8734
rradius 31.461
rwrist -9.87867
rhand -22.5583 -14.1021
rfingers 7.12502
rthumb 3.86962 -44.0467
lclavicle 4.62174e-015 4.37326e-015
lhumerus -45.4181 3.03546 67.2318
lradius 32.1759
lwrist -2.69254
lhand -30.2019 30.8238
lfingers 7.12502
lthumb -3.51243 60.7746
rfemur -5.66564 47.6425 0.187168
rtibia -5.57257
rfoot -72.5913 -19.1829
rtoes 42.7624
lfemur -11.2968 -16.1825 -11.0604
ltibia 14.0995
lfoot -10.4629 -21.878
ltoes -13.5596
408
root 15.2821 16.0919 2.1071 -167.237 5.85866 -174.448
lowerback 9.27936 1.34122 -0.282899
upperback -9.86792 2.58943 0.880422
thorax -16.3775 1.57349 0.474534
lowerneck -19.1135 -4.56054 0.270625
upperneck 34.0791 -4.29965 -1.26707
head 15.0258 -1.15107 -1.1394
rclavicle 9.93923e-017 -1.15295e-014
rhumerus -57.3641 13.7552 -80.8714
rradius 32.0584
rwrist -10.5472
rhand -23.6189 -15.1647
rfingers 7.12502
rthumb 2.84539 -45.1254
lclavicle 9.93923e-017 -1.15295e-014
lhumerus -45.3215 3.05017 66.9829
lradius 31.6072
lwrist -2.83981
lhand -30.6876 30.9801
lfingers 7.12502
lthumb -3.9815 60.9227
rfemur -5.65379 46.8049 -0.266864
rtibia -5.12957
rfoot -69.7779 -21.9818
rtoes 42.4261
lfemur -11.7039 -15.2097 -9.90347
ltibia 14.8489
lfoot -8.85289 -21.5783
ltoes -13.3672
409
root 15.5107 16.0259 2.09327 -167.465 5.67071 -174.681
lowerback 9.25568 1.28285 -0.351915
upperback -9.87028 2.5063 0.919595
thorax -16.3685 1.54808 0.57716
lowerneck -18.9781 -4.58872 0.21488
upperneck 34.2637 -4.16676 -1.53807
head 15.076 -1.12011 -1.21374
rclavicle -2.38542e-014 7.95139e-016
rhumerus -57.6624 14.0998 -80.8736
rradius 32.5962
rwrist -10.6713
rhand -23.5616 -15.245
rfingers 7.12502
rthumb 2.90071 -45.205
lclavicle -2.38542e-014 7.95139e-016
lhumerus -45.7224 3.77422 66.2587
lradius 31.3505
lwrist -4.03007
lhand -29.8469 29.751
lfingers 7.12502
lthumb -3.16959 59.7072
rfemur -5.36124 44.4717 -0.594536
rtibia -4.74539
rfoot -64.8454 -26.1368
rtoes 41.7913
lfemur -11.6872 -14.8462 -9.12168
ltibia 15.2828
lfoot -7.7148 -21.4152
ltoes -14.2562
410
root 15.7515 15.9571 2.08178 -167.788 5.51861 -175.119
lowerback 9.25104 1.27063 -0.312758
upperback -9.76069 2.44693 0.737816
thorax -16.2148 1.49211 0.368688
lowerneck -19.2335 -4.61303 0.138393
upperneck 34.5517 -4.06283 -1.75176
head 15.2688 -1.10002 -1.27922
rclavicle 7.40473e-015 -3.97569e-015
rhumerus -57.5784 13.8703 -80.6812
rradius 32.8466
rwrist -10.4687
rhand -23.5063 -15.043
rfingers 7.12502
rthumb 2.95418 -45.0023
lclavicle 7.40473e-015 -3.97569e-015
lhumerus -45.4015 3.80886 65.7394
lradius 30.8277
lwrist -4.28692
lhand -29.2494 29.2179
lfingers 7.12502
lthumb -2.59254 59.1819
rfemur -5.18896 40.8054 -0.913041
rtibia -4.19691
rfoot -57.2623 -31.602
rtoes 39.6443
lfemur -11.4179 -15.0501 -8.60673
ltibia 15.5501
lfoot -6.79156 -21.471
ltoes -14.8982
411
root 16.0056 15.8872 2.07559 -168.032 5.36939 -175.452
lowerback 9.32694 1.18723 -0.22053
upperback -9.73308 2.32275 0.618064
thorax -16.2171 1.41031 0.209712
lowerneck -19.3189 -4.49201 0.133463
upperneck 34.676 -3.75674 -2.01111
head 15.346 -1.00034 -1.33381
rclavicle -1.60767e-014 -7.95139e-016
rhumerus -57.6712 13.9488 -80.7915
rradius 33.2802
rwrist -10.7848
rhand -23.995 -15.5549
rfingers 7.12502
rthumb 2.4822 -45.5202
lclavicle -1.60767e-014 -7.95139e-016
lhumerus -45.4089 4.09291 65.2086
lradius 30.5813
lwrist -4.28829
lhand -29.314 29.2384
lfingers 7.12502
lthumb -2.65496 59.2016
rfemur -5.4807 36.1695 -1.018
rtibia -3.06707
rfoot -46.7524 -35.8345
rtoes 36.3355
lfemur -11.2502 -15.3517 -7.93898
ltibia 15.9914
lfoot -5.83646 -21.6988
ltoes -15.0031
412
root 16.2734 15.8173 2.07045 -168.277 5.18084 -175.668
lowerback 9.40739 1.10569 -0.0201781
upperback -9.71254 2.21822 0.47687
thorax -16.2275 1.32377 -0.0389023
lowerneck -19.1523 -4.52993 -0.0508612
upperneck 34.6345 -3.68337 -2.14902
head 15.2912 -1.01323 -1.34154
rclavicle 5.46658e-016 -1.59028e-015
rhumerus -57.564 13.5592 -80.6959
rradius 33.3953
rwrist -10.674
rhand -24.4655 -15.8814
rfingers 7.12502
rthumb 2.02779 -45.8515
lclavicle 5.46658e-016 -1.59028e-015
lhumerus -45.6811 4.25394 64.7626
lradius 30.5673
lwrist -4.20773
lhand -29.5234 29.4714
lfingers 7.12502
lthumb -2.85722 59.432
rfemur -5.86172 31.3954 -0.713215
rtibia -1.37456
rfoot -36.5593 -35.2374
rtoes 35.2536
lfemur -11.1229 -15.2511 -7.162
ltibia 16.3687
lfoot 0.924704 -21.7763
ltoes -31.6176
